<?xml version="1.0" standalone="no"?>
<!DOCTYPE svg PUBLIC "-//W3C//DTD SVG 20010904//EN"
 "http://www.w3.org/TR/2001/REC-SVG-20010904/DTD/svg10.dtd">
<svg version="1.0" xmlns="http://www.w3.org/2000/svg"
 width="2560.000000pt" height="983.000000pt" viewBox="0 0 2560.000000 983.000000"
 preserveAspectRatio="xMidYMid meet">

<g transform="translate(0.000000,983.000000) scale(0.100000,-0.100000)"
fill="#000000" stroke="none">
<path d="M23725 9064 c-256 -40 -467 -229 -536 -479 -30 -109 -24 -278 13
-377 36 -96 84 -171 153 -242 73 -75 154 -126 260 -162 70 -25 95 -28 200 -28
105 0 130 3 200 28 198 69 339 207 413 404 34 90 42 266 18 362 -73 285 -313
483 -601 495 -49 2 -103 1 -120 -1z m214 -99 c194 -46 352 -193 412 -385 26
-84 28 -222 4 -305 -57 -199 -211 -349 -410 -400 -284 -72 -585 107 -670 398
-24 82 -22 224 4 307 88 281 379 451 660 385z"/>
<path d="M23550 8426 l0 -376 75 0 75 0 0 155 0 155 58 0 57 0 66 -153 65
-152 77 -3 c42 -2 77 1 77 6 0 4 -32 80 -71 167 l-70 160 23 15 c72 47 103
110 96 201 -6 77 -43 133 -113 168 -47 23 -62 25 -232 29 l-183 4 0 -376z
m325 230 c37 -16 55 -42 55 -80 0 -65 -37 -86 -150 -86 l-80 0 0 90 0 90 70 0
c39 0 86 -6 105 -14z"/>
<path d="M2927 8913 c-8 -13 -2187 -7794 -2187 -7809 0 -12 114 -14 795 -14
437 0 795 1 796 3 0 1 116 443 257 982 l257 980 1153 3 1152 2 10 -22 c8 -20
510 -1932 510 -1944 0 -2 359 -3 798 -2 524 2 797 6 796 13 -1 6 -502 1766
-1115 3913 l-1113 3902 -1052 0 c-579 0 -1055 -3 -1057 -7z m1505 -2973 c224
-893 408 -1630 408 -1637 0 -11 -162 -13 -840 -13 -462 0 -840 3 -840 6 0 8
671 2683 762 3037 55 216 63 238 81 235 18 -3 63 -175 429 -1628z"/>
<path d="M9980 8909 c-1291 -44 -2118 -357 -2515 -954 -194 -291 -288 -631
-302 -1090 -6 -226 4 -358 43 -534 105 -472 390 -852 850 -1133 l84 -51 -82
-45 c-554 -300 -910 -790 -1019 -1402 -27 -147 -36 -426 -20 -581 51 -496 243
-916 577 -1268 368 -387 888 -639 1499 -726 213 -30 554 -36 2030 -33 l1460 3
3 3913 2 3912 -1197 -2 c-659 0 -1295 -4 -1413 -9z m1040 -2199 l0 -969 -307
-3 c-425 -4 -854 8 -998 27 -395 53 -640 162 -782 349 -103 136 -151 290 -160
514 -9 227 23 399 105 557 44 84 187 233 274 283 185 109 443 176 773 201 61
4 332 9 603 10 l492 1 0 -970z m-250 -2140 c102 -6 200 -13 218 -16 l32 -5 0
-1110 0 -1111 -732 5 c-690 4 -739 5 -843 25 -253 48 -405 119 -541 252 -194
190 -284 459 -284 845 0 356 88 599 284 782 195 183 512 294 946 332 140 12
706 13 920 1z"/>
<path d="M13055 8908 c-3 -7 -4 -1768 -3 -3913 l3 -3900 1460 -3 c1534 -3
1830 3 2069 38 1072 160 1845 858 2016 1820 31 173 39 496 16 666 -84 638
-456 1177 -1024 1481 l-92 50 72 43 c292 172 559 441 703 705 96 176 162 385
191 608 20 152 14 526 -11 687 -118 764 -529 1228 -1315 1490 -413 137 -872
207 -1515 230 -426 15 -2564 13 -2570 -2z m2800 -1252 c255 -33 424 -79 575
-157 169 -87 273 -192 351 -354 71 -148 83 -210 83 -455 0 -250 -11 -308 -89
-468 -126 -254 -401 -403 -850 -458 -157 -19 -568 -30 -992 -26 l-313 3 0 970
0 971 558 -5 c427 -4 585 -8 677 -21z m-85 -3086 c356 -31 600 -95 806 -210
56 -32 109 -75 180 -145 83 -83 108 -115 146 -190 88 -172 119 -326 119 -584
-1 -263 -43 -464 -132 -630 -155 -288 -422 -436 -853 -471 -72 -5 -414 -10
-772 -10 l-644 0 0 1110 c0 611 1 1110 3 1111 1 1 83 7 182 14 223 15 810 18
965 5z"/>
<path d="M20456 8868 c-36 -125 -2165 -7726 -2171 -7750 l-7 -28 795 0 c438 0
798 4 801 8 3 5 118 440 256 968 138 527 253 967 256 977 5 16 69 17 1159 17
l1154 0 15 -53 c8 -28 124 -468 256 -977 133 -509 244 -928 247 -932 2 -5 362
-8 800 -8 l795 0 -7 28 c-7 29 -2173 7624 -2206 7735 l-20 67 -1054 0 -1054 0
-15 -52z m1518 -2925 c225 -896 411 -1634 414 -1640 3 -10 -170 -13 -843 -13
-673 0 -846 3 -843 13 3 6 189 744 414 1639 373 1486 411 1628 429 1628 18 0
55 -141 429 -1627z"/>
</g>
</svg>
